name rise30.8019peak61.5557fall86.2505.mot
datacolumns 19
datarows 35
range 10.45662600000000 10.51329800000000
endheader
time	ground_force1_vx	ground_force1_vy	ground_force1_vz	ground_force1_px	ground_force1_py	ground_force1_pz	ground_force2_vx	ground_force2_vy	ground_force2_vz	ground_force2_px	ground_force2_py	ground_force2_pz	ground_torque1_x	ground_torque1_y	ground_torque1_z	ground_torque2_x	ground_torque2_y	ground_torque2_z	
10.45662600000000	-48.97664300000000	782.10838000000001	42.68166100000000	0.01189700000000	0.00000000000000	0.09684100000000	0.00000000000000	0.00000000000000	0.00000000000000	0.00000000000000	0.00000000000000	0.00000000000000	0.00000000000000	11.71841000000000	0.00000000000000	0.00000000000000	0.00000000000000	0.00000000000000	
10.45830000000000	-49.25746100000000	780.44947500000001	42.45792600000000	0.01121200000000	0.00000000000000	0.09674700000000	0.00000000000000	0.00000000000000	0.00000000000000	0.00000000000000	0.00000000000000	0.00000000000000	0.00000000000000	11.65862300000000	0.00000000000000	0.00000000000000	0.00000000000000	0.00000000000000	
10.45996800000000	-49.55860800000000	778.73371499999996	42.22046200000000	0.01052500000000	0.00000000000000	0.09664800000000	0.00000000000000	0.00000000000000	0.00000000000000	0.00000000000000	0.00000000000000	0.00000000000000	0.00000000000000	11.60312000000000	0.00000000000000	0.00000000000000	0.00000000000000	0.00000000000000	
10.46163300000000	-49.88051900000000	776.96138499999995	41.96947500000000	0.00983600000000	0.00000000000000	0.09654600000000	-1.62967800000000	3.91436900000000	1.26001300000000	0.00000000000000	0.00000000000000	0.00000000000000	0.00000000000000	11.55202200000000	0.00000000000000	0.00000000000000	0.27826800000000	0.00000000000000	
10.46330000000000	-50.22357700000000	775.13269100000002	41.70518100000000	0.00914600000000	0.00000000000000	0.09643900000000	-2.62767500000000	7.26926200000000	2.14552300000000	0.00000000000000	0.00000000000000	0.00000000000000	0.00000000000000	11.50543700000000	0.00000000000000	0.00000000000000	0.48654200000000	0.00000000000000	
10.46496500000000	-50.58811400000000	773.24775000000000	41.42781400000000	0.00845300000000	0.00000000000000	0.09632900000000	-3.76144100000000	11.28454200000000	3.17482000000000	0.00000000000000	0.00000000000000	0.00000000000000	0.00000000000000	11.46346300000000	0.00000000000000	0.00000000000000	0.73091500000000	0.00000000000000	
10.46662600000000	-50.97440700000000	771.30658600000004	41.13761900000000	0.00775800000000	0.00000000000000	0.09621400000000	-4.99829700000000	15.90667000000000	4.32506200000000	0.00000000000000	0.00000000000000	0.00000000000000	0.00000000000000	11.42618200000000	0.00000000000000	0.00000000000000	1.00662200000000	0.00000000000000	
10.46829400000000	-51.38267500000000	769.30912599999999	40.83485200000000	0.00706100000000	0.00000000000000	0.09609500000000	-6.29704600000000	21.05165900000000	5.56550600000000	0.00000000000000	0.00000000000000	0.00000000000000	0.00000000000000	11.39366800000000	0.00000000000000	0.00000000000000	1.30700400000000	0.00000000000000	
10.46996800000000	-51.81308100000000	767.25519099999997	40.51978200000000	0.00636100000000	0.00000000000000	0.09597300000000	-7.61071300000000	26.61121000000000	6.85956800000000	0.28335600000000	0.00000000000000	-0.05751200000000	0.00000000000000	11.36597800000000	0.00000000000000	0.00000000000000	3.12995700000000	0.00000000000000	
10.47162800000000	-52.26572700000000	765.14449600000000	40.19268500000000	0.00565700000000	0.00000000000000	0.09584700000000	-8.89000500000000	32.46155500000000	8.16756300000000	0.28749400000000	0.00000000000000	-0.05793100000000	0.00000000000000	11.34316000000000	0.00000000000000	0.00000000000000	3.78168900000000	0.00000000000000	
10.47329800000000	-52.74065200000000	762.97663899999998	39.85384500000000	0.00495100000000	0.00000000000000	0.09571700000000	-10.08707300000000	38.47383000000000	9.44977700000000	0.29123700000000	0.00000000000000	-0.05834300000000	0.00000000000000	11.32524500000000	0.00000000000000	0.00000000000000	4.43538200000000	0.00000000000000	
10.47496700000000	-53.23783200000000	760.75110600000005	39.50355700000000	0.00424100000000	0.00000000000000	0.09558400000000	-11.15903800000000	44.52451700000000	10.66944200000000	0.29462900000000	0.00000000000000	-0.05874700000000	0.00000000000000	11.31225600000000	0.00000000000000	0.00000000000000	5.07300800000000	0.00000000000000	
10.47663000000000	-53.75718000000000	758.46726100000001	39.14211900000000	0.00352700000000	0.00000000000000	0.09544700000000	-12.07085200000000	50.50458800000000	11.79523700000000	0.29771100000000	0.00000000000000	-0.05914600000000	0.00000000000000	11.30419700000000	0.00000000000000	0.00000000000000	5.67864200000000	0.00000000000000	
10.47830100000000	-54.29854000000000	756.12434699999994	38.76983500000000	0.00280900000000	0.00000000000000	0.09530700000000	-12.79719300000000	56.32636600000000	12.80305100000000	0.30051500000000	0.00000000000000	-0.05954000000000	0.00000000000000	11.30106400000000	0.00000000000000	0.00000000000000	6.23943200000000	0.00000000000000	
10.47996500000000	-54.86168900000000	753.72148200000004	38.38701500000000	0.00208700000000	0.00000000000000	0.09516300000000	-13.32332000000000	61.92767800000000	13.67691700000000	0.30306900000000	0.00000000000000	-0.05993000000000	0.00000000000000	11.30283700000000	0.00000000000000	0.00000000000000	6.74617900000000	0.00000000000000	
10.48162600000000	-55.44633400000000	751.25765799999999	37.99397100000000	0.00136100000000	0.00000000000000	0.09501700000000	-13.64492500000000	67.27326499999999	14.40913700000000	0.30539900000000	0.00000000000000	-0.06031700000000	0.00000000000000	11.30948300000000	0.00000000000000	0.00000000000000	7.19352600000000	0.00000000000000	
10.48330100000000	-56.05211400000000	748.73174300000005	37.59101800000000	0.00063100000000	0.00000000000000	0.09486700000000	-13.76715400000000	72.35373800000001	14.99970700000000	0.30752600000000	0.00000000000000	-0.06070000000000	0.00000000000000	11.32095700000000	0.00000000000000	0.00000000000000	7.57979800000000	0.00000000000000	
10.48496300000000	-56.67859400000000	746.14247699999999	37.17847400000000	-0.00010400000000	0.00000000000000	0.09471500000000	-13.70302400000000	77.18258500000000	15.45520500000000	0.30946800000000	0.00000000000000	-0.06108100000000	0.00000000000000	11.33719900000000	0.00000000000000	0.00000000000000	7.90656600000000	0.00000000000000	
10.48663100000000	-57.32526800000000	743.48847599999999	36.75665600000000	-0.00084400000000	0.00000000000000	0.09455900000000	-13.47144100000000	81.79179999999999	15.78733400000000	0.31124200000000	0.00000000000000	-0.06146000000000	0.00000000000000	11.35813800000000	0.00000000000000	0.00000000000000	8.17800900000000	0.00000000000000	
10.48829700000000	-57.99155800000000	740.76823100000001	36.32588300000000	-0.00158900000000	0.00000000000000	0.09440200000000	-13.09508700000000	86.22674400000000	16.01128400000000	0.31286300000000	0.00000000000000	-0.06183700000000	0.00000000000000	11.38368900000000	0.00000000000000	0.00000000000000	8.40017700000000	0.00000000000000	
10.48996600000000	-58.67681100000000	737.98011199999996	35.88647400000000	-0.00233800000000	0.00000000000000	0.09424100000000	-12.59834800000000	90.54079000000000	16.14410100000000	0.31434300000000	0.00000000000000	-0.06221100000000	0.00000000000000	11.41375200000000	0.00000000000000	0.00000000000000	8.58022100000000	0.00000000000000	
10.49163400000000	-59.38030000000000	735.12237000000005	35.43874500000000	-0.00309300000000	0.00000000000000	0.09407900000000	-12.00545300000000	94.79023400000000	16.20318000000000	0.31569400000000	0.00000000000000	-0.06258300000000	0.00000000000000	11.44821700000000	0.00000000000000	0.00000000000000	8.72567700000000	0.00000000000000	
10.49329500000000	-60.10122200000000	732.19314099999997	34.98301300000000	-0.00385200000000	0.00000000000000	0.09391400000000	-11.33894000000000	99.02982000000000	16.20498000000000	0.31692700000000	0.00000000000000	-0.06295400000000	0.00000000000000	11.48696000000000	0.00000000000000	0.00000000000000	8.84382900000000	0.00000000000000	
10.49496300000000	-60.83870200000000	729.19044899999994	34.51959100000000	-0.00461600000000	0.00000000000000	0.09374700000000	-10.61850000000000	103.30913600000000	16.16403800000000	0.31804900000000	0.00000000000000	-0.06332200000000	0.00000000000000	11.52984300000000	0.00000000000000	0.00000000000000	8.94121300000000	0.00000000000000	
10.49663200000000	-61.59178700000000	726.11221499999999	34.04879000000000	-0.00538500000000	0.00000000000000	0.09357900000000	-9.86023900000000	107.67000000000000	16.09229000000000	0.31907000000000	0.00000000000000	-0.06368900000000	0.00000000000000	11.57671700000000	0.00000000000000	0.00000000000000	9.02326100000000	0.00000000000000	
10.49829200000000	-62.35945100000000	722.95625700000005	33.57092000000000	-0.00615900000000	0.00000000000000	0.09340800000000	-9.07632700000000	112.14486100000001	15.99870500000000	0.31999700000000	0.00000000000000	-0.06405400000000	0.00000000000000	11.62742000000000	0.00000000000000	0.00000000000000	9.09409600000000	0.00000000000000	
10.49996300000000	-63.14059100000000	719.72030299999994	33.08628400000000	-0.00693800000000	0.00000000000000	0.09323600000000	-8.27499900000000	116.75616100000001	15.88920600000000	0.32083600000000	0.00000000000000	-0.06441600000000	0.00000000000000	11.68177700000000	0.00000000000000	0.00000000000000	9.15646100000000	0.00000000000000	
10.50163000000000	-63.93403100000000	716.40199199999995	32.59518300000000	-0.00772200000000	0.00000000000000	0.09306300000000	-7.46084400000000	121.51651900000000	15.76682800000000	0.32159400000000	0.00000000000000	-0.06477600000000	0.00000000000000	11.73960100000000	0.00000000000000	0.00000000000000	9.21176600000000	0.00000000000000	
10.50329600000000	-64.73852100000001	712.99888599999997	32.09791700000000	-0.00851000000000	0.00000000000000	0.09288800000000	-6.63529800000000	126.42959100000000	15.63205600000000	0.32227500000000	0.00000000000000	-0.06513400000000	0.00000000000000	11.80069300000000	0.00000000000000	0.00000000000000	9.26023200000000	0.00000000000000	
10.50496100000000	-65.55273800000001	709.50847599999997	31.59477700000000	-0.00930300000000	0.00000000000000	0.09271200000000	-5.79728600000000	131.49140199999999	15.48329500000000	0.32288500000000	0.00000000000000	-0.06549000000000	0.00000000000000	11.86484300000000	0.00000000000000	0.00000000000000	9.30109100000000	0.00000000000000	
10.50663300000000	-66.37528500000001	705.92819499999996	31.08605300000000	-0.01010100000000	0.00000000000000	0.09253500000000	-4.94392100000000	136.69196700000001	15.31739900000000	0.32342800000000	0.00000000000000	-0.06584300000000	0.00000000000000	11.93182900000000	0.00000000000000	0.00000000000000	9.33283200000000	0.00000000000000	
10.50830000000000	-67.20469600000000	702.25541999999996	30.57202900000000	-0.01090200000000	0.00000000000000	0.09235700000000	-4.07119800000000	142.01703400000000	15.13022200000000	0.32390700000000	0.00000000000000	-0.06619300000000	0.00000000000000	12.00141700000000	0.00000000000000	0.00000000000000	9.35345400000000	0.00000000000000	
10.50996100000000	-68.03943300000000	698.48748799999998	30.05298700000000	-0.01170800000000	0.00000000000000	0.09217900000000	-3.17464700000000	147.44979100000000	14.91713600000000	0.32432700000000	0.00000000000000	-0.06654100000000	0.00000000000000	12.07336200000000	0.00000000000000	0.00000000000000	9.36071000000000	0.00000000000000	
10.51162900000000	-68.87789300000000	694.62170500000002	29.52920100000000	-0.01251900000000	0.00000000000000	0.09200000000000	-2.24988600000000	152.97241700000001	14.67349200000000	0.32469100000000	0.00000000000000	-0.06688500000000	0.00000000000000	12.14740900000000	0.00000000000000	0.00000000000000	9.35232400000000	0.00000000000000	
10.51329800000000	-69.71840400000001	690.65535599999998	29.00094300000000	-0.01333300000000	0.00000000000000	0.09182100000000	-1.29306800000000	158.56739800000000	14.39499700000000	0.32500200000000	0.00000000000000	-0.06722700000000	0.00000000000000	12.22329200000000	0.00000000000000	0.00000000000000	9.32617500000000	0.00000000000000	
